<svg width="329" height="52" viewBox="0 0 329 52" fill="none" xmlns="http://www.w3.org/2000/svg">
<path d="M200.706 13.4844H199.262V23.6238H200.706V13.4844Z" fill="white"/>
<path d="M202.862 16.2185H204.179V17.3931H204.206C204.609 16.5493 205.596 16.043 206.617 16.043C208.525 16.043 209.378 17.2311 209.378 19.2225V23.6239H208.021V19.7896C208.021 18.0614 207.645 17.2176 206.456 17.1433C204.911 17.1433 204.212 18.3922 204.212 20.1946V23.6239H202.855V16.2117L202.862 16.2185Z" fill="white"/>
<path d="M210.856 22.1803C211.387 22.5314 212.16 22.7069 212.549 22.7069C213.174 22.7069 213.94 22.4436 213.94 21.647C213.94 20.2969 210.742 20.4117 210.742 18.3325C210.742 16.7933 211.884 16.0508 213.342 16.0508C213.98 16.0508 214.497 16.179 215.035 16.3411L214.92 17.5359C214.618 17.3469 213.805 17.1579 213.49 17.1579C212.791 17.1579 212.186 17.4482 212.186 18.0557C212.186 19.5679 215.384 19.1291 215.384 21.4985C215.384 23.0849 214.128 23.8072 212.811 23.8072C212.113 23.8072 211.407 23.733 210.789 23.4022L210.863 22.1803H210.856Z" fill="white"/>
<path d="M220.657 17.3252H218.703V21.3823C218.703 22.2396 219.226 22.7054 219.845 22.7054C220.268 22.7054 220.57 22.5772 220.765 22.4421V23.6032C220.463 23.691 220.046 23.8058 219.609 23.8058C218.205 23.8058 217.339 23.1375 217.339 21.6591V17.3252H215.68V16.2248H217.339V14.5102L218.696 14.0781V16.2316H220.651V17.3319L220.657 17.3252Z" fill="white"/>
<path d="M223.692 14.5645H222.16V13.0254H223.692V14.5645ZM222.247 16.2184H223.604V23.6306H222.247V16.2184Z" fill="white"/>
<path d="M229.724 17.3252H227.776V21.3823C227.776 22.2396 228.293 22.7054 228.918 22.7054C229.341 22.7054 229.643 22.5772 229.838 22.4421V23.6032C229.536 23.691 229.119 23.8058 228.683 23.8058C227.279 23.8058 226.412 23.1375 226.412 21.6591V17.3252H224.746V16.2248H226.412V14.5102L227.769 14.0781V16.2316H229.717V17.3319L229.724 17.3252Z" fill="white"/>
<path d="M237.664 23.6309H236.348V22.4563H236.321C235.918 23.3001 234.937 23.8064 233.909 23.8064C232.002 23.8064 231.148 22.6183 231.148 20.6202V16.2188H232.505V20.0531C232.505 21.7813 232.882 22.6251 234.071 22.6993C235.622 22.6993 236.314 21.4505 236.314 19.6481V16.2188H237.671V23.6309H237.664Z" fill="white"/>
<path d="M243.604 17.3252H241.656V21.3823C241.656 22.2396 242.173 22.7054 242.798 22.7054C243.221 22.7054 243.523 22.5772 243.725 22.4421V23.6032C243.416 23.691 242.999 23.8058 242.569 23.8058C241.165 23.8058 240.299 23.1375 240.299 21.6591V17.3252H238.633V16.2248H240.299V14.5102L241.656 14.0781V16.2316H243.604V17.3319V17.3252Z" fill="white"/>
<path d="M250.678 23.3201C250.154 23.5092 249.563 23.7994 248.347 23.7994C245.727 23.7994 244.531 22.1995 244.531 19.7896C244.531 17.5956 245.902 16.043 247.991 16.043C250.449 16.043 251.242 17.8454 251.242 20.2283H245.975C245.975 21.6932 247.117 22.6991 248.407 22.6991C249.307 22.6991 250.342 22.2333 250.678 21.9565V23.3201ZM249.798 19.2158C249.798 18.0817 249.133 17.1501 247.957 17.1501C246.627 17.1501 246.076 18.2504 245.975 19.2158H249.791H249.798Z" fill="white"/>
<path d="M257.385 17.3256H255.652V16.2252H257.385V15.5434C257.385 13.741 257.849 12.5664 259.857 12.5664C260.2 12.5664 260.496 12.6069 260.771 12.6542L260.711 13.7613C260.549 13.7005 260.287 13.6735 260.059 13.6735C258.883 13.6735 258.742 14.4296 258.742 15.4287V16.232H260.697V17.3323H258.742V23.6374H257.385V17.3323V17.3256Z" fill="white"/>
<path d="M265.106 16.043C267.349 16.043 268.854 17.6699 268.854 19.9178C268.854 22.0443 267.322 23.7994 265.106 23.7994C262.889 23.7994 261.344 22.0443 261.344 19.9178C261.344 17.6699 262.848 16.043 265.106 16.043ZM265.106 22.6991C266.698 22.6991 267.403 21.2477 267.403 19.9246C267.403 18.5204 266.55 17.1501 265.106 17.1501C263.661 17.1501 262.795 18.5137 262.795 19.9246C262.795 21.2477 263.5 22.6991 265.106 22.6991Z" fill="white"/>
<path d="M270.386 16.2185H271.655V17.3661H271.682C272.045 16.5965 272.824 16.043 273.603 16.043C274.006 16.043 274.208 16.0835 274.497 16.1442V17.3661C274.248 17.2648 273.973 17.2378 273.744 17.2378C272.528 17.2378 271.736 18.3989 271.736 20.2621V23.6307H270.379V16.2185H270.386Z" fill="white"/>
<path d="M199.172 28.9169H201.906C204.002 28.9169 205.453 29.5987 205.453 31.4754C205.453 32.8728 204.64 33.5681 203.37 33.8854V33.9124C204.747 34.0271 205.715 34.9317 205.715 36.3561C205.715 38.5365 203.921 39.0563 201.866 39.0563H199.179V28.9102L199.172 28.9169ZM200.616 33.2508H201.409C202.813 33.2508 203.995 33.1225 203.995 31.6239C203.995 30.4155 202.967 30.1118 202.128 30.1118H200.609V33.2508H200.616ZM200.616 37.8682H201.698C203.001 37.8682 204.17 37.5914 204.17 36.2211C204.17 34.6549 202.799 34.4322 201.55 34.4322H200.609V37.8615L200.616 37.8682Z" fill="white"/>
<path d="M209.289 29.9962H207.758V28.457H209.289V29.9962ZM207.845 31.6501H209.209V39.0622H207.845V31.6501Z" fill="white"/>
<path d="M214.672 31.4766C216.916 31.4766 218.42 33.1035 218.42 35.3582C218.42 37.4779 216.889 39.2398 214.672 39.2398C212.455 39.2398 210.91 37.4846 210.91 35.3582C210.91 33.1035 212.415 31.4766 214.672 31.4766ZM214.672 38.1327C216.264 38.1327 216.976 36.6813 216.976 35.3582C216.976 33.9473 216.123 32.5837 214.672 32.5837C213.221 32.5837 212.361 33.9473 212.361 35.3582C212.361 36.6813 213.066 38.1327 214.672 38.1327Z" fill="white"/>
<path d="M219.936 31.6521H221.206V32.7254H221.233C221.75 31.8681 222.489 31.4766 223.577 31.4766C224.43 31.4766 225.283 31.9154 225.673 32.9144C226.177 31.8546 227.292 31.4766 227.957 31.4766C229.838 31.4766 230.516 32.6984 230.516 34.3118V39.0643H229.159V34.6494C229.159 33.7313 228.944 32.5837 227.843 32.5837C226.452 32.5837 225.908 33.9473 225.908 35.3312V39.0643H224.545V34.6494C224.545 33.7313 224.33 32.5837 223.228 32.5837C221.837 32.5837 221.287 33.9473 221.287 35.3312V39.0643H219.93V31.6521H219.936Z" fill="white"/>
<path d="M238.166 38.7605C237.642 38.9495 237.051 39.2398 235.835 39.2398C233.215 39.2398 232.02 37.6399 232.02 35.2299C232.02 33.036 233.397 31.4766 235.479 31.4766C237.938 31.4766 238.73 33.279 238.73 35.6619H233.464C233.464 37.1336 234.606 38.1327 235.895 38.1327C236.796 38.1327 237.83 37.6669 238.166 37.3901V38.7537V38.7605ZM237.286 34.6494C237.286 33.5152 236.621 32.5837 235.452 32.5837C234.122 32.5837 233.571 33.684 233.47 34.6494H237.286Z" fill="white"/>
<path d="M245.483 38.0171H245.456C245.094 38.5707 244.254 39.239 242.937 39.239C240.707 39.239 239.773 37.2475 239.773 35.2291C239.773 33.2107 240.815 31.4758 242.957 31.4758C244.241 31.4758 244.979 31.9821 245.403 32.6706H245.43V28.168H246.786V39.0702H245.483V38.0239V38.0171ZM243.26 38.1319C244.791 38.1319 245.43 36.6062 245.43 35.3709C245.43 33.987 244.717 32.5829 243.246 32.5829C241.775 32.5829 241.191 33.9803 241.224 35.3304C241.198 36.4915 241.802 38.1319 243.266 38.1319" fill="white"/>
<path d="M250.434 29.9962H248.902V28.457H250.434V29.9962ZM248.983 31.6501H250.34V39.0622H248.983V31.6501Z" fill="white"/>
<path d="M257.227 32.9009C256.703 32.6782 256.186 32.5837 255.749 32.5837C254.231 32.5837 253.378 33.9473 253.378 35.3582C253.378 36.6813 254.083 38.1327 255.836 38.1327C256.3 38.1327 256.878 37.9842 257.294 37.7141L257.395 38.936C256.831 39.1993 256.179 39.2398 255.689 39.2398C253.465 39.2398 251.934 37.4846 251.934 35.3582C251.934 33.1035 253.438 31.4766 255.689 31.4766C256.239 31.4766 256.945 31.6048 257.334 31.7668L257.22 32.9009H257.227Z" fill="white"/>
<path d="M259.019 32.1777C259.698 31.7659 260.511 31.4824 261.451 31.4824C263.56 31.4824 264.413 32.5288 264.413 34.5472V37.612C264.413 38.4558 264.44 38.8473 264.474 39.0634H263.204V38.1048H263.171C262.855 38.5571 262.13 39.2389 260.887 39.2389C259.295 39.2389 258.18 38.5436 258.18 36.9302C258.18 35.067 260.202 34.4864 261.606 34.4864C262.143 34.4864 262.519 34.4864 263.05 34.5134C263.05 33.2308 262.586 32.5828 261.229 32.5828C260.464 32.5828 259.637 32.873 259.087 33.3388L259.013 32.1777H259.019ZM263.05 35.5328C262.761 35.5328 262.472 35.5058 262.183 35.5058C261.444 35.5058 259.624 35.6205 259.624 36.9302C259.624 37.7132 260.376 38.1385 261.001 38.1385C262.344 38.1385 263.057 37.2947 263.057 36.1943V35.5395L263.05 35.5328Z" fill="white"/>
<path d="M267.955 28.1621H266.598V39.0644H267.955V28.1621Z" fill="white"/>
<path d="M273.926 28.9169H276.398C278.393 28.9169 280.321 29.2409 280.321 31.6644C280.321 32.8998 279.407 33.7706 278.238 33.9731V34.0001C278.688 34.1756 278.903 34.3917 279.219 35.0195L281.127 39.0563H279.481L277.936 35.5393C277.486 34.5537 277.009 34.5537 276.243 34.5537H275.377V39.0563H273.932V28.9102L273.926 28.9169ZM275.377 33.2778H276.606C277.976 33.2778 278.789 32.6703 278.789 31.6914C278.789 30.7733 278.097 30.1928 276.767 30.1928H275.377V33.2711V33.2778Z" fill="white"/>
<path d="M288.088 38.7605C287.564 38.9495 286.973 39.2398 285.757 39.2398C283.137 39.2398 281.941 37.6399 281.941 35.2299C281.941 33.036 283.312 31.4766 285.394 31.4766C287.853 31.4766 288.645 33.279 288.645 35.6619H283.386C283.386 37.1336 284.528 38.1327 285.811 38.1327C286.704 38.1327 287.752 37.6669 288.081 37.3901V38.7537L288.088 38.7605ZM287.201 34.6494C287.201 33.5152 286.536 32.5837 285.367 32.5837C284.037 32.5837 283.486 33.684 283.386 34.6494H287.201Z" fill="white"/>
<path d="M289.634 37.6129C290.171 37.9639 290.937 38.1327 291.327 38.1327C291.945 38.1327 292.717 37.8694 292.717 37.0728C292.717 35.7227 289.52 35.8375 289.52 33.7583C289.52 32.2191 290.661 31.4766 292.119 31.4766C292.757 31.4766 293.275 31.6048 293.812 31.7668L293.698 32.9617C293.395 32.7727 292.583 32.5837 292.267 32.5837C291.575 32.5837 290.964 32.8739 290.964 33.4815C290.964 34.9936 294.161 34.5548 294.161 36.9243C294.161 38.5107 292.905 39.233 291.588 39.233C290.897 39.233 290.185 39.1588 289.567 38.828L289.64 37.6061L289.634 37.6129Z" fill="white"/>
<path d="M301.173 38.7605C300.649 38.9495 300.058 39.2398 298.842 39.2398C296.222 39.2398 295.02 37.6399 295.02 35.2299C295.02 33.036 296.397 31.4766 298.472 31.4766C300.931 31.4766 301.73 33.279 301.73 35.6619H296.47C296.47 37.1336 297.612 38.1327 298.895 38.1327C299.789 38.1327 300.83 37.6669 301.166 37.3901V38.7537L301.173 38.7605ZM300.286 34.6494C300.286 33.5152 299.621 32.5837 298.452 32.5837C297.122 32.5837 296.571 33.684 296.477 34.6494H300.293H300.286Z" fill="white"/>
<path d="M303.611 32.1777C304.289 31.7659 305.102 31.4824 306.036 31.4824C308.145 31.4824 308.998 32.5288 308.998 34.5472V37.612C308.998 38.4558 309.025 38.8473 309.052 39.0634H307.782V38.1048H307.749C307.433 38.5571 306.708 39.2389 305.465 39.2389C303.873 39.2389 302.758 38.5436 302.758 36.9302C302.758 35.067 304.786 34.4864 306.184 34.4864C306.721 34.4864 307.097 34.4864 307.628 34.5134C307.628 33.2308 307.164 32.5828 305.801 32.5828C305.035 32.5828 304.209 32.873 303.658 33.3388L303.591 32.1777H303.611ZM307.648 35.5328C307.359 35.5328 307.07 35.5058 306.782 35.5058C306.043 35.5058 304.222 35.6205 304.222 36.9302C304.222 37.7132 304.975 38.1385 305.593 38.1385C306.936 38.1385 307.648 37.2947 307.648 36.1943V35.5395V35.5328Z" fill="white"/>
<path d="M311.011 31.6521H312.28V32.7997H312.307C312.67 32.0301 313.449 31.4766 314.228 31.4766C314.631 31.4766 314.833 31.5171 315.122 31.5778V32.7997C314.873 32.6984 314.598 32.6714 314.369 32.6714C313.153 32.6714 312.361 33.8325 312.361 35.6957V39.0643H311.004V31.6521H311.011Z" fill="white"/>
<path d="M321.036 32.9009C320.512 32.6782 319.994 32.5837 319.558 32.5837C318.04 32.5837 317.186 33.9473 317.186 35.3582C317.186 36.6813 317.898 38.1327 319.645 38.1327C320.109 38.1327 320.686 37.9842 321.109 37.7141L321.21 38.936C320.646 39.1993 319.994 39.2398 319.504 39.2398C317.274 39.2398 315.742 37.4846 315.742 35.3582C315.742 33.1035 317.247 31.4766 319.504 31.4766C320.055 31.4766 320.76 31.6048 321.15 31.7668L321.036 32.9009Z" fill="white"/>
<path d="M322.477 28.161H323.833V32.711H323.867C324.357 31.9279 325.211 31.4756 326.238 31.4756C328.146 31.4756 328.999 32.6637 328.999 34.6551V39.0565H327.642V35.2222C327.642 33.494 327.266 32.6502 326.077 32.5759C324.532 32.5759 323.833 33.8248 323.833 35.6272V39.0565H322.477V28.1543V28.161Z" fill="white"/>
<path d="M187.578 13.3379L180.095 29.6541L172.685 13.3379H167.305V39.1252H171.06V18.3941L179.638 37.1946H180.545L189.204 18.4076V39.1252H192.972V13.3379H187.578Z" fill="white"/>
<path d="M101.184 12.8828C93.6068 12.8828 89.0859 17.8445 89.0859 26.1545C89.0859 34.4645 93.6068 39.5748 101.184 39.5748C108.761 39.5748 113.282 34.4308 113.282 26.1545C113.282 17.8783 108.647 12.8828 101.184 12.8828ZM101.184 36.483C95.5011 36.483 92.9552 31.2917 92.9552 26.1545C92.9552 21.0173 95.5011 15.9746 101.184 15.9746C106.182 15.9746 109.413 19.971 109.413 26.1545C109.413 30.9205 107.263 36.483 101.184 36.483Z" fill="white"/>
<path d="M127.668 28.1815H133.626V36.1068C132.075 36.6063 129.482 36.478 129.482 36.478C123.994 36.3093 120.407 32.7112 120.407 26.3049C120.407 20.2428 124.35 16.3815 130.704 16.2127C130.906 16.2127 131.114 16.2127 131.322 16.2127C132.928 16.2127 134.513 16.3747 136.421 16.7392V13.3639C134.963 13.0871 132.679 12.8104 130.402 12.7969H130.321C121.858 12.7969 116.383 18.2446 116.383 26.6829C116.383 34.3381 121.468 39.5833 130.107 39.5833C132.296 39.5833 134.768 39.347 137.341 38.7327V24.759H127.675V28.1748L127.668 28.1815Z" fill="white"/>
<path d="M154.706 13.3379H149.728L140.203 39.132H144.106L146.403 32.9147H158.071L160.389 39.132H164.305L154.706 13.3379ZM147.646 29.5394L152.207 17.1857L156.809 29.5394H147.646Z" fill="white"/>
<path d="M72.4959 29.6541L65.0866 13.3379H59.6992V39.1252H63.461V18.3941L72.0324 37.1946H72.9393L81.6115 18.4076V39.1252H85.3665V13.3379H79.9791L72.4959 29.6541Z" fill="white"/>
<path d="M37.2118 49.509C39.2203 48.5302 41.081 47.3016 42.7604 45.8637L34.8875 39.7814L37.2118 49.509ZM15.407 38.411L11.4504 44.6621C11.1414 45.1481 10.9936 45.6882 10.9936 46.1945C10.9936 46.9978 11.3496 47.6999 11.9744 48.0981C12.3102 48.3074 12.6864 48.4154 13.076 48.4154C13.8888 48.4154 14.7621 47.9631 15.2928 47.1126L19.2561 40.8615C19.5651 40.3687 19.7128 39.8354 19.7128 39.3291C19.7128 38.5258 19.3635 37.8237 18.7388 37.4254C18.3962 37.2094 18.0201 37.1081 17.6304 37.1081H17.617C16.8109 37.1081 15.9444 37.5604 15.4137 38.411M1.40113 34.4754C1.58922 35.0357 1.79074 35.5825 2.01914 36.1226L4.16199 34.3539L1.40113 34.4754ZM49.8271 36.2238C50.0689 35.65 50.2906 35.0627 50.4921 34.4754L47.5499 34.3471L49.8271 36.2306V36.2238ZM6.41905 34.2526L2.60355 37.4052C3.07377 38.3705 3.59773 39.3021 4.17543 40.1932L11.6586 34.0096L6.41905 34.2526ZM47.6641 40.2742C48.2418 39.3899 48.7725 38.465 49.2427 37.5064L45.3063 34.2391L40.0667 33.9961L47.6708 40.2742H47.6641ZM0.299472 30.0132C0.460691 31.0798 0.695802 32.1194 0.977934 33.1388L5.90853 32.916L9.95914 29.5677L0.299472 30.0132ZM45.8101 32.9025L50.9019 33.1253C51.184 32.1127 51.4191 31.0731 51.5871 30.0065L41.7595 29.5542L45.8101 32.9025ZM46.025 19.0975L41.9744 22.4458L51.5871 22.0003C51.4258 20.9337 51.1907 19.8941 50.9019 18.8815L46.025 19.1042V19.0975ZM0.299472 22.0003L10.1741 22.4593L6.12349 19.111L0.991367 18.868C0.702517 19.8941 0.467409 20.9337 0.306191 22.0003M47.7581 17.6596L50.4854 17.5381C50.2973 16.9846 50.0958 16.4378 49.8741 15.9045L47.7648 17.6529L47.7581 17.6596ZM1.40785 17.5314L4.38367 17.6731L2.07287 15.7694C1.83105 16.3432 1.60937 16.9373 1.40113 17.5314M40.2749 18.0039L45.5145 17.7609L49.3031 14.6286C48.8329 13.6632 48.3089 12.7384 47.7313 11.8406L40.2749 17.9971V18.0039ZM2.65729 14.5003L6.63401 17.7744L11.8736 18.0174L4.24932 11.7191C3.66491 12.6169 3.13423 13.5417 2.66401 14.5071M38.8508 3.59133C38.0447 3.59133 37.1782 4.04362 36.6475 4.88745L32.6842 11.1453C32.3685 11.6313 32.2274 12.1646 32.2274 12.6709C32.2274 13.4742 32.5767 14.1763 33.2082 14.5813C33.544 14.7974 33.9202 14.8986 34.3098 14.8986C35.1159 14.8986 35.9892 14.4463 36.5266 13.5957L40.4899 7.34467C40.7989 6.85188 40.9399 6.31858 40.9399 5.81228C40.9399 5.01571 40.5906 4.30689 39.9659 3.90861C39.63 3.69259 39.2539 3.59133 38.8575 3.59133H38.8508ZM9.15305 6.13631L17.046 12.2389L14.7151 2.50448C12.6998 3.47657 10.8391 4.70518 9.15305 6.14306M28.9695 2.72725L29.1576 9.68714C29.1576 9.68714 29.1576 9.75464 29.1576 9.8019C29.1576 11.8878 27.6663 13.6903 25.6309 13.7578C25.604 13.7578 25.5772 13.7578 25.5503 13.7578C23.5283 13.7443 21.9632 11.9891 21.9094 9.8829L23.2597 9.84915C23.3067 11.3275 24.3747 12.4144 25.557 12.4009H25.6108C26.793 12.3806 27.8141 11.26 27.8208 9.8019V9.71414L27.6327 2.761C27.5924 1.28262 26.5176 0.195767 25.3421 0.202518C25.3421 0.202518 25.3219 0.202518 25.2816 0.202518C24.0993 0.22277 23.0783 1.34337 23.0783 2.80151C23.0783 2.83526 23.0783 2.85551 23.0783 2.88251L23.1455 5.68402L25.5772 5.61651L25.6175 6.97339L21.8356 7.0814L21.7214 2.94327V2.80151C21.7214 1.78891 22.0774 0.857329 22.6618 0.148514C20.3241 0.445542 18.0805 1.0531 15.978 1.93068L19.2628 15.6479L8.14543 7.04765C7.00347 8.13449 5.95555 9.31585 5.02183 10.5917L15.8772 19.5498L8.38726 19.2055L14.1844 23.9917L0.138255 23.3504C0.0509288 24.2212 0.00390625 25.1123 0.00390625 26.0034C0.00390625 26.8945 0.0509288 27.7855 0.138255 28.6631L13.9694 28.0218L8.1723 32.808L15.669 32.4637L4.95465 41.307C6.29814 43.1702 7.88345 44.8511 9.66357 46.289C9.66357 46.2552 9.65685 46.2215 9.65685 46.1877C9.65685 45.4182 9.87181 44.6351 10.3219 43.9263L14.2784 37.6684C15.051 36.4466 16.334 35.7445 17.6372 35.7378C18.2686 35.7378 18.9 35.9065 19.4643 36.2643C20.5257 36.9394 21.0765 38.1207 21.0698 39.3156C21.0698 40.0852 20.8548 40.8682 20.4047 41.577L16.4482 47.8349C15.978 48.5774 15.3062 49.1107 14.574 49.428C17.4827 50.8591 20.6936 51.7502 24.0859 52C23.4343 51.2979 23.0178 50.3394 22.991 49.2795L22.8029 42.3466C22.8029 42.2859 22.8029 42.2319 22.8029 42.1981C22.8029 40.1122 24.3009 38.3165 26.2892 38.249C26.3497 38.249 26.3967 38.249 26.4101 38.249C28.4321 38.2625 30.004 40.0109 30.0577 42.1238L28.7075 42.1576C28.6605 40.6792 27.5857 39.5924 26.4101 39.6059C26.4101 39.6059 26.3967 39.6059 26.3631 39.6059C25.1808 39.6261 24.1531 40.74 24.1531 42.1981C24.1531 42.2319 24.1531 42.2521 24.1531 42.2859L24.3412 49.2458C24.3882 50.7174 25.4563 51.811 26.6318 51.7975H26.6855C27.8611 51.7705 28.8889 50.6566 28.8889 49.1985V49.1175L28.815 46.316L26.39 46.3835L26.3497 45.0266L30.1249 44.9186L30.2458 49.0972V49.1985C30.2458 50.2111 29.8965 51.1427 29.2986 51.8582C31.6363 51.5545 33.8866 50.9469 35.9825 50.0626L32.7044 36.3588L43.8016 44.9321C44.9435 43.8453 45.9847 42.6572 46.9184 41.3813L36.0967 32.4435L43.5866 32.7878L37.7895 28.0016L51.7886 28.6496C51.8759 27.7788 51.9229 26.8945 51.9229 25.9966C51.9229 25.0988 51.8759 24.2145 51.7886 23.3369L38.0044 23.9714L43.8016 19.1853L36.3116 19.5295L46.9923 10.7132C45.6556 8.85681 44.0837 7.18941 42.3237 5.75153C42.3237 5.77178 42.3237 5.79203 42.3237 5.80553C42.3237 6.5751 42.102 7.35817 41.6587 8.06699L37.7021 14.3181C36.9229 15.5399 35.6466 16.2487 34.3434 16.2487C33.712 16.2487 33.0805 16.08 32.5163 15.7154C31.4616 15.0404 30.9108 13.8658 30.9175 12.6642C30.9175 11.8946 31.1325 11.1115 31.5826 10.4027L35.5458 4.15163C36.0093 3.41581 36.6609 2.88927 37.3931 2.57199C34.4979 1.14761 31.3004 0.256523 27.9283 0C28.5799 0.702064 28.9896 1.66065 29.0165 2.71375" fill="white"/>
<mask id="mask0_4922_4395" style="mask-type:luminance" maskUnits="userSpaceOnUse" x="0" y="0" width="52" height="52">
<path d="M37.2118 49.509C39.2203 48.5302 41.081 47.3016 42.7604 45.8637L34.8875 39.7814L37.2118 49.509ZM15.407 38.411L11.4504 44.6621C11.1414 45.1481 10.9936 45.6882 10.9936 46.1945C10.9936 46.9978 11.3496 47.6999 11.9744 48.0981C12.3102 48.3074 12.6864 48.4154 13.076 48.4154C13.8888 48.4154 14.7621 47.9631 15.2928 47.1126L19.2561 40.8615C19.5651 40.3687 19.7128 39.8354 19.7128 39.3291C19.7128 38.5258 19.3635 37.8237 18.7388 37.4254C18.3962 37.2094 18.0201 37.1081 17.6304 37.1081H17.617C16.8109 37.1081 15.9444 37.5604 15.4137 38.411M1.40113 34.4754C1.58922 35.0357 1.79074 35.5825 2.01914 36.1226L4.16199 34.3539L1.40113 34.4754ZM49.8271 36.2238C50.0689 35.65 50.2906 35.0627 50.4921 34.4754L47.5499 34.3471L49.8271 36.2306V36.2238ZM6.41905 34.2526L2.60355 37.4052C3.07377 38.3705 3.59773 39.3021 4.17543 40.1932L11.6586 34.0096L6.41905 34.2526ZM47.6641 40.2742C48.2418 39.3899 48.7725 38.465 49.2427 37.5064L45.3063 34.2391L40.0667 33.9961L47.6708 40.2742H47.6641ZM0.299472 30.0132C0.460691 31.0798 0.695802 32.1194 0.977934 33.1388L5.90853 32.916L9.95914 29.5677L0.299472 30.0132ZM45.8101 32.9025L50.9019 33.1253C51.184 32.1127 51.4191 31.0731 51.5871 30.0065L41.7595 29.5542L45.8101 32.9025ZM46.025 19.0975L41.9744 22.4458L51.5871 22.0003C51.4258 20.9337 51.1907 19.8941 50.9019 18.8815L46.025 19.1042V19.0975ZM0.299472 22.0003L10.1741 22.4593L6.12349 19.111L0.991367 18.868C0.702517 19.8941 0.467409 20.9337 0.306191 22.0003M47.7581 17.6596L50.4854 17.5381C50.2973 16.9846 50.0958 16.4378 49.8741 15.9045L47.7648 17.6529L47.7581 17.6596ZM1.40785 17.5314L4.38367 17.6731L2.07287 15.7694C1.83105 16.3432 1.60937 16.9373 1.40113 17.5314M40.2749 18.0039L45.5145 17.7609L49.3031 14.6286C48.8329 13.6632 48.3089 12.7384 47.7313 11.8406L40.2749 17.9971V18.0039ZM2.65729 14.5003L6.63401 17.7744L11.8736 18.0174L4.24932 11.7191C3.66491 12.6169 3.13423 13.5417 2.66401 14.5071M38.8508 3.59133C38.0447 3.59133 37.1782 4.04362 36.6475 4.88745L32.6842 11.1453C32.3685 11.6313 32.2274 12.1646 32.2274 12.6709C32.2274 13.4742 32.5767 14.1763 33.2082 14.5813C33.544 14.7974 33.9202 14.8986 34.3098 14.8986C35.1159 14.8986 35.9892 14.4463 36.5266 13.5957L40.4899 7.34467C40.7989 6.85188 40.9399 6.31858 40.9399 5.81228C40.9399 5.01571 40.5906 4.30689 39.9659 3.90861C39.63 3.69259 39.2539 3.59133 38.8575 3.59133H38.8508ZM9.15305 6.13631L17.046 12.2389L14.7151 2.50448C12.6998 3.47657 10.8391 4.70518 9.15305 6.14306M28.9695 2.72725L29.1576 9.68714C29.1576 9.68714 29.1576 9.75464 29.1576 9.8019C29.1576 11.8878 27.6663 13.6903 25.6309 13.7578C25.604 13.7578 25.5772 13.7578 25.5503 13.7578C23.5283 13.7443 21.9632 11.9891 21.9094 9.8829L23.2597 9.84915C23.3067 11.3275 24.3747 12.4144 25.557 12.4009H25.6108C26.793 12.3806 27.8141 11.26 27.8208 9.8019V9.71414L27.6327 2.761C27.5924 1.28262 26.5176 0.195767 25.3421 0.202518C25.3421 0.202518 25.3219 0.202518 25.2816 0.202518C24.0993 0.22277 23.0783 1.34337 23.0783 2.80151C23.0783 2.83526 23.0783 2.85551 23.0783 2.88251L23.1455 5.68402L25.5772 5.61651L25.6175 6.97339L21.8356 7.0814L21.7214 2.94327V2.80151C21.7214 1.78891 22.0774 0.857329 22.6618 0.148514C20.3241 0.445542 18.0805 1.0531 15.978 1.93068L19.2628 15.6479L8.14543 7.04765C7.00347 8.13449 5.95555 9.31585 5.02183 10.5917L15.8772 19.5498L8.38726 19.2055L14.1844 23.9917L0.138255 23.3504C0.0509288 24.2212 0.00390625 25.1123 0.00390625 26.0034C0.00390625 26.8945 0.0509288 27.7855 0.138255 28.6631L13.9694 28.0218L8.1723 32.808L15.669 32.4637L4.95465 41.307C6.29814 43.1702 7.88345 44.8511 9.66357 46.289C9.66357 46.2552 9.65685 46.2215 9.65685 46.1877C9.65685 45.4182 9.87181 44.6351 10.3219 43.9263L14.2784 37.6684C15.051 36.4466 16.334 35.7445 17.6372 35.7378C18.2686 35.7378 18.9 35.9065 19.4643 36.2643C20.5257 36.9394 21.0765 38.1207 21.0698 39.3156C21.0698 40.0852 20.8548 40.8682 20.4047 41.577L16.4482 47.8349C15.978 48.5774 15.3062 49.1107 14.574 49.428C17.4827 50.8591 20.6936 51.7502 24.0859 52C23.4343 51.2979 23.0178 50.3394 22.991 49.2795L22.8029 42.3466C22.8029 42.2859 22.8029 42.2319 22.8029 42.1981C22.8029 40.1122 24.3009 38.3165 26.2892 38.249C26.3497 38.249 26.3967 38.249 26.4101 38.249C28.4321 38.2625 30.004 40.0109 30.0577 42.1238L28.7075 42.1576C28.6605 40.6792 27.5857 39.5924 26.4101 39.6059C26.4101 39.6059 26.3967 39.6059 26.3631 39.6059C25.1808 39.6261 24.1531 40.74 24.1531 42.1981C24.1531 42.2319 24.1531 42.2521 24.1531 42.2859L24.3412 49.2458C24.3882 50.7174 25.4563 51.811 26.6318 51.7975H26.6855C27.8611 51.7705 28.8889 50.6566 28.8889 49.1985V49.1175L28.815 46.316L26.39 46.3835L26.3497 45.0266L30.1249 44.9186L30.2458 49.0972V49.1985C30.2458 50.2111 29.8965 51.1427 29.2986 51.8582C31.6363 51.5545 33.8866 50.9469 35.9825 50.0626L32.7044 36.3588L43.8016 44.9321C44.9435 43.8453 45.9847 42.6572 46.9184 41.3813L36.0967 32.4435L43.5866 32.7878L37.7895 28.0016L51.7886 28.6496C51.8759 27.7788 51.9229 26.8945 51.9229 25.9966C51.9229 25.0988 51.8759 24.2145 51.7886 23.3369L38.0044 23.9714L43.8016 19.1853L36.3116 19.5295L46.9923 10.7132C45.6556 8.85681 44.0837 7.18941 42.3237 5.75153C42.3237 5.77178 42.3237 5.79203 42.3237 5.80553C42.3237 6.5751 42.102 7.35817 41.6587 8.06699L37.7021 14.3181C36.9229 15.5399 35.6466 16.2487 34.3434 16.2487C33.712 16.2487 33.0805 16.08 32.5163 15.7154C31.4616 15.0404 30.9108 13.8658 30.9175 12.6642C30.9175 11.8946 31.1325 11.1115 31.5826 10.4027L35.5458 4.15163C36.0093 3.41581 36.6609 2.88927 37.3931 2.57199C34.4979 1.14761 31.3004 0.256523 27.9283 0C28.5799 0.702064 28.9896 1.66065 29.0165 2.71375" fill="white"/>
</mask>
<g mask="url(#mask0_4922_4395)">
<path d="M32.471 -25.2271L-25.043 19.4766L19.4245 77.2533L76.9384 32.5496L32.471 -25.2271Z" fill="white"/>
</g>
</svg>
